<svg xmlns="http://www.w3.org/2000/svg" style="display:none">
  <symbol id="skills" viewBox="0 0 24 24"><path fill="currentColor" d="M12 2l4 4-8 8-4-4 8-8zm6 6l4 4-8 8-4-4 8-8z"/></symbol>
  <symbol id="jobs" viewBox="0 0 24 24"><path fill="currentColor" d="M4 7h16v10H4zM9 5h6v2H9z"/></symbol>
  <symbol id="validation" viewBox="0 0 24 24"><path fill="currentColor" d="M12 2l3 6 6 .9-4.5 4.3 1.1 6.4L12 16l-5.6 3.6 1.1-6.4L3 8.9 9 8z"/></symbol>
  <symbol id="search" viewBox="0 0 24 24"><path fill="currentColor" d="M10 2a8 8 0 105.3 14l4.4 4.4 1.4-1.4-4.4-4.4A8 8 0 0010 2z"/></symbol>
  <symbol id="add" viewBox="0 0 24 24"><path fill="currentColor" d="M11 11V5h2v6h6v2h-6v6h-2v-6H5v-2z"/></symbol>
  <symbol id="dashboard" viewBox="0 0 24 24"><path fill="currentColor" d="M3 3h8v8H3zM13 3h8v5h-8zM13 10h8v11h-8zM3 13h8v8H3z"/></symbol>
</svg>
